<?xml version="1.0" encoding="utf-8"?>
<!-- Generator: Adobe Illustrator 24.0.0, SVG Export Plug-In . SVG Version: 6.00 Build 0)  -->
<svg version="1.1" id="Capa_1" xmlns="http://www.w3.org/2000/svg" xmlns:xlink="http://www.w3.org/1999/xlink" x="0px" y="0px"
	 viewBox="0 0 365.99 244.48" style="enable-background:new 0 0 365.99 244.48;" xml:space="preserve">
<style type="text/css">
	.st0{fill:#FFFFFF;}
	.st1{fill:#65009A;}
	.st2{fill:#93278F;}
</style>
<g>
	<g>
		<path class="st0" d="M46.89,153.83H26.39l0.35,0.69v49.31h-6.6v-49.31l0.35-0.69H0v-6.25h46.89V153.83z"/>
		<path class="st0" d="M74.67,203.84h-6.39v-5.49h-0.14c-3.47,3.96-8.06,6.18-13.68,6.18c-12.36,0-17.64-6.6-17.64-17.22v-27.23
			h6.39v26.88c0,6.46,1.88,11.46,11.95,11.46c7.36,0,13.13-4.1,13.13-12.36v-25.98h6.39V203.84z"/>
		<path class="st0" d="M107.26,182.31H87.53l0.69,0.7v20.84h-6.6v-56.26h25.7c11.94,0,18.54,7.22,18.54,17.37
			C125.87,174.67,119.27,182.31,107.26,182.31z M107.32,153.83H87.53l0.69,0.69v20.84l-0.69,0.69h19.73
			c8.06,0,11.81-4.72,11.81-11.11C119.06,158.28,115.31,153.83,107.32,153.83z"/>
		<path class="st0" d="M167.06,184.88h-35.35l0.77,0.69c1.11,7.92,5.69,12.85,14.58,12.85c4.8,0,8.89-1.67,12.02-4.72l4.52,4.45
			c-4.24,4.17-9.94,6.39-16.6,6.39c-14.45,0-21.11-9.52-21.11-22.23c0-13.4,7.64-22.92,20.84-22.92c13.82,0,20.49,9.73,20.49,22.92
			C167.2,183.35,167.13,183.97,167.06,184.88z M161.37,179.04l-0.77-0.69c-1.04-7.5-5.35-12.85-13.89-12.85
			c-8.75,0-13.06,5.56-14.17,12.85l-0.77,0.69H161.37z"/>
		<path class="st0" d="M211.18,203.84h-6.39v-5.07h-0.14c-3.05,3.75-7.71,5.76-13.68,5.76c-13.68,0-20.28-9.31-20.28-22.3
			c0-13.2,6.74-22.85,20.28-22.85c5.7,0,10.63,2.43,13.68,6.04h0.14v-19.86h6.39V203.84z M191.24,165.5
			c-10.14,0-14.17,7.43-14.17,16.67s3.89,16.25,14.17,16.25c10.21,0,14.1-7.01,14.1-16.25C205.34,172.86,201.59,165.5,191.24,165.5z
			"/>
		<path class="st0" d="M221.32,154.25c-2.78,0-4.17-1.88-4.17-4.58c0-2.71,1.46-4.59,4.17-4.59c2.78,0,4.17,1.88,4.17,4.59
			C225.49,152.37,224.03,154.25,221.32,154.25z M224.52,203.84h-6.39v-43.76h6.39V203.84z"/>
		<path class="st0" d="M269.52,203.84h-6.39v-5.07H263c-3.06,3.75-7.71,5.76-13.68,5.76c-13.68,0-20.28-9.31-20.28-22.3
			c0-13.2,6.74-22.85,20.28-22.85c5.7,0,10.63,2.43,13.68,6.04h0.14v-19.86h6.39V203.84z M249.59,165.5
			c-10.14,0-14.17,7.43-14.17,16.67s3.89,16.25,14.17,16.25c10.21,0,14.1-7.01,14.1-16.25C263.69,172.86,259.94,165.5,249.59,165.5z
			"/>
		<path class="st0" d="M294.67,204.53c-13.75,0-20.63-9.44-20.63-22.57c0-13.06,6.88-22.57,20.63-22.57
			c13.82,0,20.7,9.38,20.7,22.57C315.37,194.95,308.36,204.53,294.67,204.53z M294.67,165.5c-10.07,0-14.24,7.16-14.24,16.46
			c0,9.24,4.24,16.46,14.31,16.46c10.07,0,14.24-7.22,14.24-16.46S304.75,165.5,294.67,165.5z"/>
		<path class="st0" d="M318.73,204.22c-1.84,0-2.83-1.28-2.83-3.13c0-1.81,0.98-3.09,2.83-3.09c1.88,0,2.87,1.24,2.87,3.09
			C321.59,202.93,320.57,204.22,318.73,204.22z"/>
		<path class="st0" d="M343.37,200.75c-2.22,2.34-5.2,3.47-8.82,3.47c-7.65,0-11.27-5.16-11.27-12.06c0-7.05,4.11-12.44,11.34-12.44
			c3.84,0,6.63,1.17,8.44,3.09l-2.45,2.45c-1.28-1.39-3.43-2.26-5.99-2.23c-5.31,0.04-7.88,4.18-7.88,9.12
			c0,4.75,2.22,8.74,7.84,8.74c2.6,0,4.67-0.79,6.33-2.56L343.37,200.75z"/>
		<path class="st0" d="M354.76,204.22c-7.46,0-11.19-5.13-11.19-12.25c0-7.08,3.73-12.25,11.19-12.25c7.5,0,11.23,5.09,11.23,12.25
			C365.99,199.01,362.18,204.22,354.76,204.22z M354.76,183.04c-5.46,0-7.72,3.88-7.72,8.93c0,5.01,2.3,8.93,7.76,8.93
			c5.47,0,7.73-3.92,7.73-8.93S360.23,183.04,354.76,183.04z"/>
	</g>
	<g>
		<polyline class="st0" points="278.66,54.18 322.98,91.47 286.81,91.47 286.81,91.12 256.28,54.18 278.66,54.18 		"/>
		<polyline class="st0" points="251.58,54.18 282.41,91.47 245.07,91.47 245.07,91.37 226.26,54.18 251.58,54.18 		"/>
		<polyline class="st0" points="222.31,54.18 241.18,91.47 203.54,91.47 196.95,54.18 222.31,54.18 		"/>
		<polyline class="st0" points="193.46,54.18 200.08,91.47 164.53,91.47 171.15,54.18 193.46,54.18 		"/>
		<polyline class="st0" points="167.66,54.18 161.03,91.47 123.43,91.47 142.29,54.18 167.66,54.18 		"/>
		<polyline class="st0" points="138.34,54.18 119.53,91.37 119.53,91.47 82.2,91.47 113.02,54.18 138.34,54.18 		"/>
		<polyline class="st0" points="108.33,54.18 77.8,91.12 77.8,91.47 41.63,91.47 85.94,54.18 108.33,54.18 		"/>
		<path class="st0" d="M324.63,95.03v17.37c0,7.36-8.76,16.36-18.99,16.36c-10.39,0-18.83-11.46-18.83-18.94V95.03H324.63"/>
		<path class="st0" d="M283.38,95.03v14.79c0,9.15-7.89,18.94-19.65,18.94c-11.58,0-18.67-13.58-18.67-20.98V95.03H283.38"/>
		<path class="st0" d="M241.65,95.03v12.75c0,10.44-5.87,20.98-18.99,20.98c-12.65,0-18.99-13.03-18.99-20.33v0v-13.4H241.65"/>
		<path class="st0" d="M200.24,95.03v13.4c0,13.25-9.12,21.16-17.93,21.16c-8.82,0-17.93-7.92-17.93-21.16v-13.4H200.24"/>
		<path class="st0" d="M160.97,95.03l-0.03,13.4v0c0,7.3-6.35,20.33-18.99,20.33c-13.12,0-18.99-10.54-18.99-20.98V95.03H160.97"/>
		<path class="st0" d="M119.53,95.03v12.75c0,7.4-7.09,20.98-18.67,20.98c-11.75,0-19.65-9.8-19.65-18.94V95.03H119.53"/>
		<path class="st0" d="M77.8,95.03v14.79c0,7.48-8.44,18.94-18.83,18.94c-10.23,0-18.99-8.99-18.99-16.36V95.03H77.8"/>
	</g>
	<path class="st0" d="M210.36,0h-56.11c-19.03,0-34.52,15.49-34.52,34.52v11l9.32-0.13V34.52c0-13.9,11.31-25.2,25.2-25.2h56.11
		c13.9,0,25.2,11.31,25.2,25.2v10.87l9.32,0.13v-11C244.88,15.49,229.39,0,210.36,0z"/>
	<g>
		<path class="st0" d="M72.35,237h-2.41l-1.1-2.31l0.13-0.19h-5.26l0.13,0.19L62.75,237h-2.42l5.05-10.48h1.94L72.35,237z
			 M67.99,232.67l-0.22-0.21l-1.09-2.28l-0.32-0.96l-0.03,0.01l-0.32,0.94l-1.09,2.28l-0.22,0.21H67.99z"/>
		<path class="st0" d="M94.79,232.18c0,3.13-1.58,4.95-4.92,4.95c-3.35,0-4.94-1.8-4.94-4.95v-5.65h2.2v5.64c0,1.98,0.72,3,2.73,3
			c1.98,0,2.73-1.02,2.73-3v-5.64h2.2V232.18z"/>
		<path class="st0" d="M110.26,237h-1.85l-4.72-5.77l-0.78-1.23h-0.03v7h-2.2v-10.48h1.85l4.77,5.77l0.73,1.19h0.02v-6.96h2.2V237z"
			/>
		<path class="st0" d="M155.44,237h-4.5v-10.48h4.45c4.5,0,5.29,2.86,5.29,5.24S159.92,237,155.44,237z M155.26,228.49h-2.33
			l0.21,0.21v6.13l-0.21,0.21h2.38c2.72,0,3.13-1.38,3.13-3.27C158.44,229.9,158,228.49,155.26,228.49z"/>
		<path class="st0" d="M174.86,237h-8.66v-10.48h8.66v1.97h-6.67l0.21,0.21v1.88l-0.21,0.21h6.05v1.97h-6.05l0.21,0.21v1.88
			l-0.21,0.21h6.67V237z"/>
		<path class="st0" d="M192.72,237h-4.5v-10.48h4.45c4.5,0,5.29,2.86,5.29,5.24S197.19,237,192.72,237z M192.53,228.49h-2.33
			l0.21,0.21v6.13l-0.21,0.21h2.38c2.72,0,3.13-1.38,3.13-3.27C195.72,229.9,195.28,228.49,192.53,228.49z"/>
		<path class="st0" d="M205.73,237h-2.2v-10.48h2.2V237z"/>
		<path class="st0" d="M216.23,237.13c-1.86,0-3.66-0.58-4.98-1.85l1.53-1.53c1.07,0.97,2.32,1.42,3.53,1.42
			c1.72,0,2.34-0.54,2.34-1.13c0-0.34-0.3-0.85-1.67-1.19c-0.23-0.05-1.7-0.42-1.94-0.48c-1.86-0.48-3.53-1.17-3.53-2.95
			c0-1.67,1.59-3.04,4.59-3.04c1.88,0,3.43,0.63,4.57,1.8l-1.54,1.53c-0.72-0.83-1.84-1.37-3.05-1.37c-1.7,0-2.33,0.54-2.33,1.03
			c0,0.44,0.48,0.71,2.17,1.14c0.23,0.07,1.45,0.37,1.69,0.43c2.19,0.53,3.27,1.67,3.27,3.07
			C220.88,235.63,219.46,237.13,216.23,237.13z"/>
		<path class="st0" d="M234.87,228.49h-3.74l0.12,0.21V237h-2.2v-8.31l0.12-0.21h-3.74v-1.97h9.44V228.49z"/>
		<path class="st0" d="M249.81,237h-2.4l-1.1-2.31l0.13-0.19h-5.26l0.13,0.19l-1.09,2.31h-2.42l5.05-10.48h1.94L249.81,237z
			 M245.45,232.67l-0.22-0.21l-1.09-2.28l-0.32-0.96l-0.03,0.01l-0.32,0.94l-1.09,2.28l-0.22,0.21H245.45z"/>
		<path class="st0" d="M264.38,237h-1.85l-4.72-5.77l-0.78-1.23h-0.03v7h-2.2v-10.48h1.85l4.78,5.77l0.72,1.19h0.02v-6.96h2.2V237z"
			/>
		<path class="st0" d="M279.92,235.27c-1.11,1.2-2.61,1.88-4.41,1.88c-3.69,0-5.61-2.18-5.61-5.31c0-3.13,2.01-5.42,5.63-5.42
			c1.88,0,3.28,0.59,4.38,1.83l-1.51,1.51c-0.67-0.92-1.61-1.4-2.87-1.4c-2.38,0-3.39,1.48-3.39,3.47c0,1.93,0.94,3.35,3.37,3.35
			c1.26,0,2.24-0.49,2.93-1.38L279.92,235.27z"/>
		<path class="st0" d="M287.38,237h-2.2v-10.48h2.2V237z"/>
		<path class="st0" d="M304.45,237h-2.4l-1.1-2.31l0.13-0.19h-5.26l0.13,0.19l-1.09,2.31h-2.42l5.05-10.48h1.94L304.45,237z
			 M300.1,232.67l-0.22-0.21l-1.09-2.28l-0.32-0.96l-0.03,0.01l-0.32,0.94l-1.09,2.28l-0.22,0.21H300.1z"/>
	</g>
	<g>
		<path class="st0" d="M145.32,234.57l-7.54,2.4l-2.39,7.5c-2.2-5.51-4.36-10.91-6.51-16.3L145.32,234.57z"/>
		<g>
			<path class="st0" d="M129.27,217.37c0.13,0,0.26,0.03,0.37,0.11c0.15,0.1,0.25,0.26,0.37,0.39c0,0.19,0.01,0.34,0.01,0.5
				c0,0.47,0,0.95,0,1.42c0,0.71,0,1.42-0.01,2.12c0,0.34-0.06,0.65-0.39,0.85c-0.12,0.07-0.25,0.11-0.39,0.11
				c-0.4,0-0.78-0.3-0.79-0.73c-0.01-0.54,0-1.08,0.01-1.62c0.01-0.78,0.02-1.56,0.02-2.34
				C128.47,217.68,128.87,217.37,129.27,217.37"/>
			<path class="st0" d="M121.66,220.43c0.22,0,0.46,0.09,0.61,0.25c0.69,0.7,1.38,1.4,2.07,2.1c0.25,0.25,0.5,0.5,0.74,0.77
				c0.19,0.21,0.19,0.48,0.1,0.73c-0.09,0.27-0.29,0.42-0.56,0.49c-0.07,0.02-0.13,0.02-0.2,0.02c-0.22,0-0.42-0.1-0.59-0.27
				c-0.71-0.73-1.42-1.46-2.14-2.19c-0.18-0.18-0.36-0.35-0.53-0.53c-0.09-0.09-0.15-0.21-0.23-0.32c-0.11-0.38,0.03-0.76,0.37-0.96
				C121.42,220.46,121.54,220.43,121.66,220.43"/>
			<path class="st0" d="M136.8,220.56c0.19,0,0.37,0.07,0.51,0.21c0.33,0.34,0.32,0.81-0.02,1.15c-0.72,0.71-1.44,1.41-2.16,2.12
				c-0.21,0.2-0.4,0.41-0.61,0.61c-0.16,0.15-0.36,0.22-0.55,0.22c-0.32,0-0.64-0.21-0.78-0.61c-0.06-0.24,0.01-0.52,0.24-0.75
				c0.4-0.39,0.8-0.78,1.2-1.17c0.52-0.51,1.04-1.03,1.56-1.54C136.37,220.64,136.59,220.56,136.8,220.56"/>
			<path class="st0" d="M118.49,227.93c0.01,0,0.01,0,0.02,0c0.64,0.01,1.28,0.02,1.93,0.02c0.67,0.01,1.33,0,2,0.01
				c0.45,0.01,0.78,0.32,0.79,0.77c0.02,0.45-0.33,0.79-0.81,0.79c0,0,0,0,0,0c-1.01,0-2.03-0.01-3.04-0.02
				c-0.32,0-0.65,0-0.97-0.02c-0.31-0.02-0.51-0.21-0.62-0.52C117.58,228.53,117.97,227.93,118.49,227.93"/>
			<path class="st0" d="M124.39,232.73c0.23,0,0.43,0.13,0.6,0.3c0.25,0.26,0.23,0.74-0.04,1.02c-0.51,0.52-1.04,1.03-1.56,1.54
				c-0.42,0.42-0.84,0.84-1.27,1.25c-0.16,0.15-0.35,0.22-0.53,0.22c-0.32,0-0.63-0.2-0.76-0.59c-0.06-0.24-0.04-0.51,0.2-0.75
				c0.85-0.83,1.69-1.66,2.54-2.49c0.13-0.13,0.24-0.27,0.39-0.37C124.12,232.77,124.26,232.73,124.39,232.73"/>
		</g>
	</g>
</g>
</svg>
